<svg width="150" height="150" viewBox="0 0 150 150" xmlns="http://www.w3.org/2000/svg" role="img"
  aria-label="TXT to JSON transform">
  <defs>
    <linearGradient id="grad" x1="0" y1="0" x2="1" y2="1">
      <stop offset="0%" stop-color="#1168cb" />
      <stop offset="100%" stop-color="rgba(37,252,162,0.397)" />
    </linearGradient>
  </defs>

  <!-- 背景 -->
  <rect width="150" height="150" rx="50" ry="50" fill="url(#grad)" />

  <!-- {} (JetBrains Mono Bold base) -->
  <path d="M55,45
          C52,45 50,47 50,50
          L50,66
          C50,70 48,74 44,75
          C48,76 50,80 50,84
          L50,100
          C50,103 52,105 55,105
          L58,105
          C58,107 56,110 53,110
          L50,110
          C45,110 42,106 42,100
          L42,84
          C42,80 40,76 36,75
          C40,74 42,70 42,66
          L42,50
          C42,44 45,40 50,40
          L53,40
          C56,40 58,43 58,45
          Z" fill="white" />

  <path d="M95,105
          C98,105 100,103 100,100
          L100,84
          C100,80 102,76 106,75
          C102,74 100,70 100,66
          L100,50
          C100,47 98,45 95,45
          L92,45
          C92,43 94,40 97,40
          L100,40
          C105,40 108,44 108,50
          L108,66
          C108,70 110,74 114,75
          C110,76 108,80 108,84
          L108,100
          C108,106 105,110 100,110
          L97,110
          C94,110 92,107 92,105
          Z" fill="white" />
</svg>
